<svg xmlns="http://www.w3.org/2000/svg" width="4000" height="4000" viewBox="0 0 4000 4000" version="1.1"><path d="M 2020.500 496.606 C 1990.354 499.564, 1971.227 504.110, 1940.919 515.522 C 1847.153 550.826, 1798.445 585.376, 1748.278 652.170 C 1721.298 688.091, 1701.011 725.897, 1688.544 763.485 C 1681.902 783.512, 1672.790 819.756, 1670.313 836 C 1667.807 852.441, 1667.823 889.723, 1670.344 907.500 C 1676.111 948.166, 1699.401 1010.599, 1723.690 1050.500 C 1747.556 1089.709, 1784.137 1132.422, 1814.593 1156.641 C 1840.197 1177.003, 1878.154 1198.844, 1915.816 1214.887 C 1947.758 1228.493, 1957.175 1231.184, 2002.080 1239.534 C 2031.808 1245.063, 2032.807 1245.180, 2046 1244.682 C 2083.603 1243.264, 2150.294 1225.015, 2194.500 1204.049 C 2231.419 1186.539, 2258.691 1167.379, 2287.038 1139.036 C 2316.037 1110.042, 2356.303 1058.443, 2374.034 1027.558 C 2385.670 1007.290, 2392.608 987.901, 2405.365 940 C 2413.133 910.833, 2414.604 903.329, 2416.133 885.078 C 2418.158 860.911, 2415.422 839.613, 2404.880 797.500 C 2391.993 746.015, 2382.036 721.689, 2360.264 688.500 C 2320.377 627.697, 2290.176 596.705, 2235.500 560.470 C 2199.741 536.771, 2191.059 532.090, 2165 522.452 C 2158.125 519.910, 2149.006 516.527, 2144.736 514.935 C 2136.789 511.973, 2097.007 502.776, 2075.500 498.929 C 2066.560 497.330, 2058.527 496.710, 2044 496.498 C 2033.275 496.342, 2022.700 496.391, 2020.500 496.606 M 2012.500 729.477 C 2009.750 730.209, 2004.708 730.851, 2001.295 730.904 C 1993.203 731.029, 1983.327 734.638, 1977.431 739.623 C 1969.816 746.062, 1960.001 752.851, 1950.500 758.250 C 1938.031 765.337, 1932.215 770.575, 1923.145 782.888 C 1907.865 803.630, 1909.341 799.341, 1905.378 834.500 C 1901.962 864.796, 1901.586 893.062, 1904.391 908.500 C 1909.862 938.605, 1922.200 965.098, 1936.812 978.115 C 1948.469 988.501, 1976.748 1004.630, 1992.566 1009.916 C 2005.390 1014.201, 2020.853 1015.228, 2053.771 1013.981 C 2092.598 1012.510, 2103.597 1010.459, 2112.612 1003.009 C 2115.254 1000.826, 2120.148 997.568, 2123.486 995.770 C 2128.177 993.243, 2133.644 988.250, 2147.528 973.811 C 2157.413 963.532, 2167.859 953.260, 2170.742 950.983 C 2176.851 946.158, 2182.248 936.051, 2184.560 925.104 C 2186.142 917.615, 2187.742 885.584, 2188.404 848.139 C 2188.853 822.778, 2188.853 822.778, 2178.981 803.060 C 2167.449 780.027, 2169.573 782.317, 2132.126 752.528 C 2116.916 740.429, 2108.404 734.324, 2105.543 733.463 C 2101.386 732.212, 2079.188 730.608, 2051 729.523 C 2043.025 729.216, 2032.225 728.780, 2027 728.555 C 2020.984 728.296, 2015.667 728.634, 2012.500 729.477 M 1151 985.626 C 1137.982 987.387, 1113.523 992.800, 1095.264 997.960 C 1065.586 1006.348, 1026.680 1022.124, 1014.771 1030.601 C 1012.169 1032.452, 1007.398 1035.041, 1004.167 1036.354 C 991.022 1041.695, 973.711 1053.941, 942 1080.330 C 906.740 1109.672, 888.284 1131.388, 862.816 1173.500 C 839.201 1212.548, 827.009 1241.347, 816.670 1282.500 C 800.952 1345.064, 799.417 1384.773, 810.993 1429.408 C 817.019 1452.644, 828.659 1482.213, 844.907 1515.555 C 870.318 1567.705, 895.141 1602.108, 929.500 1632.799 C 964.905 1664.424, 992.857 1683.679, 1028 1700.654 C 1054.559 1713.483, 1077.186 1721.379, 1116.209 1731.438 C 1170.159 1745.345, 1185.877 1745.341, 1245.500 1731.407 C 1311.279 1716.035, 1348.198 1698.937, 1400.389 1659.673 C 1423.432 1642.337, 1446.299 1620.795, 1461.610 1602 C 1482.418 1576.456, 1511.631 1534.117, 1518.729 1519.218 C 1527.148 1501.542, 1549.231 1433.014, 1557.146 1400 C 1561.106 1383.483, 1561.983 1364.010, 1559.554 1346.500 C 1555.661 1318.423, 1542.973 1263.074, 1536.039 1243.920 C 1526.312 1217.046, 1500.983 1174.471, 1470.944 1134.500 C 1440.871 1094.484, 1420.478 1075.949, 1373.241 1045.701 C 1343.627 1026.737, 1328.064 1019.332, 1295.500 1008.712 C 1260.326 997.242, 1227.850 988.947, 1204.872 985.564 C 1191.724 983.629, 1165.540 983.659, 1151 985.626 M 1158.500 1226.572 C 1156.300 1227.388, 1150.450 1228.319, 1145.500 1228.642 C 1137.261 1229.180, 1135.570 1229.678, 1125.500 1234.537 C 1118.395 1237.965, 1112.886 1241.412, 1109.941 1244.274 C 1107.434 1246.710, 1104.059 1249.545, 1102.441 1250.574 C 1091.331 1257.639, 1082.377 1266.523, 1072.785 1280 C 1070.240 1283.575, 1066.097 1288.716, 1063.578 1291.425 C 1060.794 1294.418, 1057.968 1298.928, 1056.372 1302.925 C 1054.928 1306.541, 1052.713 1311.525, 1051.450 1314 C 1047.733 1321.283, 1046.533 1334.216, 1046.529 1367 C 1046.522 1425.636, 1051.698 1439.986, 1085.448 1474.898 C 1096.780 1486.621, 1103.399 1491.353, 1114.700 1495.813 C 1140.073 1505.825, 1162.575 1508.739, 1201.325 1507.030 C 1225.880 1505.948, 1241.335 1503.830, 1248.500 1500.567 C 1252.996 1498.519, 1261.533 1492.086, 1283.812 1473.957 C 1287.833 1470.685, 1292.214 1467.733, 1293.547 1467.399 C 1295.270 1466.966, 1297.889 1463.713, 1302.608 1456.145 C 1306.259 1450.290, 1310.340 1444.035, 1311.678 1442.245 C 1313.015 1440.455, 1316.338 1432.292, 1319.062 1424.106 C 1323.612 1410.434, 1324.136 1407.848, 1325.503 1392.361 C 1327.427 1370.545, 1327.434 1343.204, 1325.519 1331.500 C 1323.537 1319.392, 1317.631 1299.272, 1313.507 1290.583 C 1308.015 1279.011, 1300.437 1269.385, 1293.002 1264.535 C 1289.426 1262.202, 1280.838 1255.550, 1273.917 1249.753 C 1257.948 1236.378, 1254.389 1234.901, 1227.500 1230.493 C 1195.268 1225.209, 1166.570 1223.578, 1158.500 1226.572" stroke="none" fill="#ffffff" fill-rule="evenodd"/><path d="M 2578.014 30.750 C 2575.481 33.059, 2574.747 34.864, 2573.440 42 C 2572.584 46.675, 2571.231 51.002, 2570.434 51.616 C 2568.536 53.077, 2564.808 63.671, 2564.848 67.488 C 2564.866 69.131, 2564.203 71.223, 2563.376 72.137 C 2562.549 73.051, 2561.279 75.982, 2560.555 78.649 C 2559.830 81.317, 2555.996 90.165, 2552.034 98.311 C 2540.891 121.221, 2526.277 139.502, 2499.279 164.306 C 2464.742 196.034, 2455.318 202.772, 2422.906 218.905 C 2385.659 237.445, 2368.246 241.656, 2312.500 245.604 C 2285.733 247.501, 2234.229 247.079, 2182.500 244.541 C 2121.414 241.543, 2106.098 241.027, 2078 241.018 C 2018.178 241, 2002.015 243.029, 1914 261.611 C 1867.813 271.362, 1851.222 275.602, 1824.500 284.484 C 1759.092 306.224, 1710.753 328.905, 1672 356.038 C 1640.523 378.076, 1623.068 394.731, 1590.294 434 C 1574.278 453.189, 1565.546 462.789, 1553.001 475 C 1537.561 490.028, 1528.725 504.995, 1507.446 552.169 C 1471.846 631.088, 1447.292 695.415, 1434.604 743 C 1432.538 750.748, 1424 790.769, 1424 792.705 C 1424 792.999, 1421.413 793.034, 1418.250 792.782 C 1413.655 792.416, 1411.396 791.560, 1407 788.518 C 1383.600 772.325, 1299.586 745.247, 1247.500 737.110 C 1223.917 733.426, 1212.782 732.587, 1187.500 732.591 C 1148.988 732.597, 1129.247 735.412, 1078.858 748.082 C 1007.203 766.099, 987.045 773.538, 914.819 808.617 C 845.715 842.179, 810.523 862.547, 780.929 886.109 C 751.780 909.318, 716.706 949.227, 673.737 1008.082 C 645.387 1046.911, 631.362 1069.717, 614.750 1104 C 598.963 1136.581, 556.032 1230.427, 547.861 1250.218 C 545.501 1255.933, 532.692 1271.511, 487.191 1324 C 469.242 1344.705, 476.976 1339.085, 409.745 1380.279 C 386.990 1394.222, 386.990 1394.222, 356.245 1395.077 C 296.052 1396.750, 236.416 1399.120, 231 1400.053 C 227.975 1400.574, 222.778 1402.334, 219.451 1403.964 C 214.310 1406.483, 212.547 1408.122, 207.701 1414.890 C 201.213 1423.952, 201.270 1423.586, 203.346 1443 C 204.727 1455.916, 199.628 1446.636, 245.653 1520 C 269.908 1558.664, 280.374 1577.479, 284.073 1589.077 C 287.569 1600.036, 297.117 1620.309, 305.391 1634.341 C 308.890 1640.276, 313.204 1645.817, 317.646 1650.082 C 324.500 1656.664, 324.500 1656.664, 338 1657.728 C 353.950 1658.985, 377.831 1657.959, 389.412 1655.519 C 410.810 1651.011, 430.748 1641.676, 476 1614.976 C 521.986 1587.844, 521.242 1588.227, 530.554 1586.915 C 539.958 1585.591, 560.080 1587.226, 587.616 1591.551 C 590.551 1592.012, 592.452 1594.968, 620.549 1642.770 C 679.663 1743.344, 738.904 1844.752, 961.265 2226 C 1085.569 2439.125, 1212.478 2656.475, 1243.285 2709 C 1613.159 3339.623, 1688.006 3466.033, 1696.212 3473.953 C 1700.747 3478.330, 1700.945 3478.762, 1701.513 3485.500 C 1702.497 3497.191, 1702.857 3498.346, 1706.883 3502.750 C 1710.139 3506.311, 1711.380 3507, 1714.538 3507 C 1717.678 3507, 1718.949 3506.305, 1722.154 3502.834 C 1724.269 3500.542, 1726 3498.317, 1726 3497.889 C 1726 3495.674, 1738.136 3488.730, 1746.926 3485.915 C 1769.783 3478.596, 1805.815 3465.713, 1813.332 3462.172 C 1817.824 3460.056, 1827.125 3454.532, 1834 3449.897 C 1848.940 3439.823, 1892.142 3409.473, 1900.261 3403.347 C 1904.948 3399.811, 1906.813 3398.999, 1910.261 3398.996 C 1922.156 3398.986, 1928.224 3386.330, 1921.417 3375.730 C 1919.813 3373.232, 1917.340 3370.491, 1915.922 3369.639 C 1914.374 3368.709, 1912.861 3366.480, 1912.138 3364.065 C 1911.450 3361.768, 1908.673 3357.563, 1905.671 3354.270 C 1901.922 3350.157, 1899.590 3346.346, 1897.555 3341 C 1889.259 3319.213, 1889.111 3318.950, 1776.502 3125 C 1679.133 2957.298, 1626.036 2865.531, 1482.280 2616.500 C 1260.006 2231.453, 1203.793 2134.800, 1166.712 2073.908 C 1155.930 2056.203, 1144.276 2035.519, 1137.739 2022.488 C 1130.468 2007.992, 1127.760 1996.010, 1131.750 1995.992 C 1132.713 1995.987, 1138.450 1995.330, 1144.500 1994.532 C 1164.375 1991.908, 1186 1990.059, 1220.500 1988.032 C 1260.127 1985.705, 1271.255 1984.665, 1291 1981.448 C 1327.115 1975.563, 1383.341 1959.838, 1419.500 1945.509 C 1448.798 1933.898, 1466.458 1924.181, 1503 1899.564 C 1575.066 1851.014, 1637.558 1802.652, 1659.065 1778.785 C 1681.314 1754.094, 1705.032 1720.406, 1740.231 1663.500 C 1766.666 1620.764, 1762.449 1625.468, 1774.609 1625.148 C 1785.121 1624.872, 1785.121 1624.872, 1792.187 1631.538 C 1808.203 1646.647, 1862.204 1691.957, 1880.936 1706.005 C 1898.551 1719.215, 1913.573 1722.516, 1929.636 1716.706 C 1933.561 1715.287, 1939.636 1713.841, 1943.136 1713.493 C 1946.636 1713.146, 1953.443 1711.695, 1958.262 1710.270 C 1966.540 1707.821, 1967.458 1707.259, 1974.911 1700.089 C 1984.773 1690.601, 1985.866 1687.828, 1990.509 1660.518 C 1996.670 1624.278, 1997.221 1603.845, 1993.044 1566.530 C 1991.300 1550.954, 1990.053 1535.747, 1988.522 1511.392 C 1987.950 1502.285, 1987.950 1502.285, 2006.225 1501.720 C 2039.149 1500.703, 2126.205 1488.435, 2175.213 1477.907 C 2245.500 1462.807, 2295.109 1442.194, 2358.500 1401.748 C 2407.160 1370.702, 2487.731 1308.833, 2529.348 1270.557 C 2555.877 1246.159, 2574.404 1218.994, 2596.318 1172.362 C 2606.041 1151.673, 2610.538 1140.557, 2614.976 1126.250 C 2618.155 1116, 2618.155 1116, 2623.328 1116.029 C 2628.500 1116.058, 2628.500 1116.058, 2645.900 1147.279 C 2655.469 1164.451, 2700.967 1244.875, 2747.006 1326 C 2793.045 1407.125, 2889.569 1577.450, 2961.503 1704.500 C 3208.614 2140.944, 3225.243 2170.087, 3299.292 2296.500 C 3329.158 2347.485, 3369.336 2415.239, 3390.021 2449.500 C 3401.515 2468.538, 3405.901 2476.688, 3406.401 2479.939 C 3406.777 2482.380, 3407.929 2485.980, 3408.962 2487.939 C 3411.550 2492.845, 3413 2497.707, 3413 2501.475 C 3413 2504.695, 3415.684 2508.061, 3419.259 2509.323 C 3421.534 2510.126, 3426.029 2508.404, 3427.634 2506.113 C 3428.324 2505.127, 3431.502 2502.595, 3434.695 2500.488 C 3437.888 2498.381, 3441.719 2495.834, 3443.208 2494.829 C 3444.769 2493.776, 3454.218 2491.284, 3465.514 2488.947 C 3516.100 2478.479, 3537.516 2466.887, 3588.543 2422.357 C 3604.621 2408.325, 3606.509 2407, 3610.411 2407 C 3611.810 2407, 3615.943 2405.875, 3619.596 2404.500 C 3623.249 2403.125, 3627.069 2402, 3628.084 2402 C 3630.887 2402, 3636.731 2396.346, 3638.046 2392.360 C 3640.526 2384.847, 3637.218 2378.911, 3628.327 2374.922 C 3622.866 2372.472, 3621.752 2371.490, 3619.686 2367.305 C 3614.721 2357.248, 3564.106 2267.198, 3426.719 2024 C 3312.112 1821.123, 3127.243 1498.338, 2763.493 865.988 C 2634.158 641.150, 2592.855 568.854, 2549.338 491.138 C 2528.978 454.777, 2528.978 454.777, 2529.648 443.744 C 2530.318 432.711, 2530.318 432.711, 2540.409 427.991 C 2545.959 425.394, 2554.775 421.820, 2560 420.047 C 2581.927 412.607, 2595.016 403.067, 2659.500 347.525 C 2690.388 320.920, 2703.577 310.111, 2706.515 308.994 C 2707.953 308.447, 2710.690 308, 2712.597 308 C 2723.703 308, 2733.154 297.886, 2733.267 285.881 C 2733.344 277.672, 2730.061 271.602, 2722.961 266.829 C 2717.500 263.158, 2717.500 263.158, 2705.510 236.329 C 2689.294 200.042, 2666.642 154.594, 2658.993 143 C 2650.865 130.680, 2638.786 114.448, 2625.571 98.088 C 2619.757 90.890, 2615 84.414, 2615 83.696 C 2615 82.979, 2613.740 80.391, 2612.200 77.946 C 2610.660 75.501, 2608.810 70.800, 2608.089 67.500 C 2607.368 64.200, 2606.427 61.050, 2605.998 60.500 C 2605.570 59.950, 2603.558 55.467, 2601.527 50.538 C 2599.496 45.609, 2597.030 40.434, 2596.048 39.038 C 2595.066 37.642, 2593.952 35.499, 2593.572 34.276 C 2591.629 28.016, 2583.128 26.089, 2578.014 30.750 M 2020.500 496.606 C 1990.354 499.564, 1971.227 504.110, 1940.919 515.522 C 1892.156 533.881, 1852.192 553.890, 1820.675 575.722 C 1789.447 597.354, 1769.171 617.668, 1745.538 651 C 1732.761 669.020, 1711.445 707.582, 1700.080 733.239 C 1688.699 758.929, 1674.690 807.293, 1670.313 836 C 1667.807 852.441, 1667.823 889.723, 1670.344 907.500 C 1674.953 939.999, 1689.040 981.737, 1711.184 1028.500 C 1723.621 1054.763, 1728.302 1063.375, 1738.050 1077.931 C 1747.969 1092.742, 1755.474 1101.539, 1775.935 1122.341 C 1817.404 1164.501, 1844.926 1184.361, 1886.426 1202.070 C 1892.517 1204.670, 1904.700 1209.934, 1913.500 1213.768 C 1946.726 1228.247, 1956.198 1231.002, 2002.080 1239.534 C 2031.858 1245.072, 2032.785 1245.181, 2046 1244.669 C 2068.755 1243.789, 2094.346 1238.761, 2128.874 1228.388 C 2152.452 1221.304, 2171.778 1214.327, 2188.417 1206.892 C 2210.272 1197.126, 2251.052 1173.996, 2266.248 1162.747 C 2281.044 1151.794, 2304.021 1127.061, 2330.578 1093.500 C 2353.657 1064.336, 2366.328 1045.852, 2373.142 1031.413 C 2375.455 1026.511, 2379.355 1018.252, 2381.808 1013.059 C 2391.211 993.156, 2410.746 925.928, 2414.371 900.997 C 2419.130 868.261, 2417.128 846.431, 2404.880 797.500 C 2391.263 743.098, 2384.266 726.769, 2350.284 670.096 C 2330.026 636.309, 2326.805 632.210, 2305.500 613.100 C 2277.379 587.876, 2247.701 564.298, 2231.151 554.034 C 2218.570 546.230, 2181.696 528.503, 2168.500 523.914 C 2161.900 521.619, 2154.925 518.951, 2153 517.986 C 2146.796 514.875, 2134.024 511.316, 2110.500 506.145 C 2072.348 497.759, 2065.854 496.817, 2044 496.498 C 2033.275 496.342, 2022.700 496.391, 2020.500 496.606 M 2012.500 729.477 C 2009.750 730.209, 2004.744 730.851, 2001.376 730.904 C 1993.183 731.032, 1988.437 732.865, 1978.686 739.666 C 1974.184 742.807, 1966.225 748.280, 1961 751.828 C 1948.458 760.345, 1937.766 769.321, 1929.072 778.630 C 1920.580 787.723, 1911.174 800.817, 1909.367 806.060 C 1908.649 808.146, 1906.848 820.798, 1905.366 834.176 C 1901.961 864.922, 1901.594 893.138, 1904.401 908.500 C 1906.760 921.414, 1911.503 937.414, 1914.480 942.500 C 1918.290 949.009, 1933.412 968.795, 1942.208 978.780 C 1951.260 989.055, 1955.551 992.229, 1972.178 1000.949 C 1996.393 1013.648, 2009.079 1015.674, 2053.771 1013.981 C 2092.598 1012.510, 2103.597 1010.459, 2112.612 1003.009 C 2115.254 1000.826, 2120.150 997.568, 2123.491 995.770 C 2128.209 993.230, 2133.580 988.312, 2147.533 973.751 C 2157.415 963.439, 2167.356 953.611, 2169.624 951.910 C 2174.167 948.503, 2181.274 937.062, 2183.554 929.486 C 2184.320 926.942, 2185.405 920.280, 2185.966 914.681 C 2187.398 900.383, 2189.126 826.922, 2188.113 823.405 C 2185.414 814.035, 2170.581 788.330, 2161.765 777.745 C 2155.752 770.525, 2110.638 734.996, 2105.533 733.460 C 2101.385 732.212, 2079.167 730.607, 2051 729.523 C 2043.025 729.216, 2032.225 728.780, 2027 728.555 C 2020.984 728.296, 2015.667 728.634, 2012.500 729.477 M 1151 985.626 C 1145.225 986.407, 1133.431 988.623, 1124.791 990.551 C 1084.248 999.595, 1053.960 1010.409, 1012 1030.822 C 974.663 1048.986, 957.242 1061.641, 917.254 1099.651 C 886.196 1129.172, 873.827 1146.195, 853.788 1187 C 831.148 1233.100, 825.301 1248.145, 816.670 1282.500 C 805.603 1326.550, 802.001 1355.841, 804.001 1385.517 C 806.570 1423.638, 814.199 1448.383, 843.456 1513.500 C 856.054 1541.538, 862.054 1553.325, 871.039 1567.684 C 888.811 1596.085, 919.297 1631.107, 942 1649.203 C 961.497 1664.743, 988.937 1681.203, 1026.102 1699.650 C 1052.650 1712.828, 1076.088 1721.096, 1116.209 1731.438 C 1170.159 1745.345, 1185.877 1745.341, 1245.500 1731.407 C 1286.602 1721.802, 1309.764 1713.600, 1345.500 1695.996 C 1395.870 1671.183, 1433.867 1641.416, 1465.591 1601.917 C 1499.523 1559.669, 1517.730 1527.268, 1532.413 1483 C 1542.414 1452.847, 1552.964 1417.444, 1557.146 1400 C 1561.106 1383.483, 1561.983 1364.010, 1559.554 1346.500 C 1555.637 1318.250, 1543.015 1263.265, 1535.910 1243.500 C 1532.619 1234.343, 1501.906 1172.844, 1494.710 1161 C 1479.883 1136.599, 1457.317 1108.946, 1437.704 1091.147 C 1428.463 1082.760, 1409.650 1067.745, 1396.390 1058.175 C 1380.638 1046.806, 1349.042 1029.579, 1325.500 1019.525 C 1297.195 1007.437, 1235.537 990.078, 1204.872 985.564 C 1191.724 983.629, 1165.540 983.659, 1151 985.626 M 1158.500 1226.572 C 1156.300 1227.388, 1150.450 1228.319, 1145.500 1228.642 C 1137.261 1229.180, 1135.570 1229.678, 1125.500 1234.537 C 1118.395 1237.965, 1112.886 1241.412, 1109.941 1244.274 C 1107.434 1246.710, 1104.059 1249.545, 1102.441 1250.574 C 1091.331 1257.639, 1082.377 1266.523, 1072.785 1280 C 1070.240 1283.575, 1066.097 1288.716, 1063.578 1291.425 C 1060.757 1294.458, 1058.002 1298.874, 1056.405 1302.925 C 1054.980 1306.541, 1052.896 1311.075, 1051.775 1313 C 1048.597 1318.456, 1047.040 1331.393, 1046.357 1358 C 1045.744 1381.864, 1046.423 1395.314, 1049.176 1413.826 C 1050.151 1420.379, 1051.047 1422.374, 1057.663 1432.722 C 1074.353 1458.826, 1090.924 1478.021, 1107.173 1490.068 C 1116.340 1496.865, 1116.938 1497.158, 1128.619 1500.588 C 1149.800 1506.808, 1168.720 1508.470, 1201.726 1507.012 C 1227.732 1505.863, 1243.956 1503.388, 1250.456 1499.578 C 1260.924 1493.444, 1288.829 1470.251, 1298.075 1460 C 1309.503 1447.330, 1313.653 1440.204, 1319.119 1423.861 C 1323.613 1410.425, 1324.137 1407.836, 1325.503 1392.361 C 1327.391 1370.953, 1327.431 1343.201, 1325.589 1331.856 C 1324.817 1327.101, 1322.484 1317.233, 1320.404 1309.927 C 1317.220 1298.746, 1315.729 1295.284, 1310.990 1288.071 C 1303.414 1276.541, 1294.116 1265.604, 1288.110 1261.157 C 1285.394 1259.146, 1278.520 1253.635, 1272.836 1248.910 C 1267.151 1244.186, 1261.444 1239.759, 1260.152 1239.073 C 1256.382 1237.069, 1246.912 1233.943, 1241.500 1232.917 C 1204.739 1225.944, 1167.805 1223.120, 1158.500 1226.572" stroke="none" fill="#3c0c6c" fill-rule="evenodd"/><path d="M 2410.500 1702.029 C 2387.097 1704.054, 2342.884 1715.603, 2305.515 1729.452 C 2249.620 1750.169, 2193.758 1775.109, 2128 1808.707 C 2017.804 1865.010, 1958.898 1899.517, 1905.140 1939.260 C 1892.551 1948.567, 1841.074 1989.098, 1818 2007.871 C 1783.371 2036.045, 1776.570 2042.805, 1758.146 2067.365 C 1724.838 2111.766, 1709.216 2140.972, 1692.454 2190.175 C 1678.638 2230.728, 1673.747 2251.088, 1671.521 2277.313 C 1669.585 2300.116, 1666.999 2350.212, 1667.003 2364.825 C 1667.018 2415.135, 1683.738 2472.923, 1725.790 2568.009 C 1746.836 2615.598, 1758.431 2636.590, 1815.819 2731 C 1909.847 2885.687, 2088.349 3172.526, 2103.874 3193.885 C 2112.142 3205.259, 2129.844 3227.493, 2138.852 3237.819 C 2150.074 3250.681, 2155.755 3250.848, 2190 3239.317 C 2240.537 3222.302, 2278.902 3201.321, 2312.611 3172.267 C 2315.972 3169.370, 2319.474 3167, 2320.393 3167 C 2323.424 3167, 2329.445 3163.951, 2332.838 3160.699 C 2339.870 3153.959, 2342.510 3144.181, 2339.675 3135.381 C 2338.595 3132.026, 2338.091 3126.510, 2338.063 3117.742 C 2338.009 3100.324, 2336.344 3093.019, 2329.122 3078.500 C 2325.839 3071.900, 2322.656 3064.881, 2322.049 3062.902 C 2320.871 3059.062, 2314.312 3048.528, 2304.986 3035.500 C 2297.962 3025.687, 2195.233 2853.145, 2138.279 2755.500 C 2063.789 2627.793, 2010.501 2530.969, 1991.043 2487.976 C 1986.942 2478.914, 1976.898 2458.239, 1968.723 2442.031 C 1952.205 2409.280, 1946.517 2396.518, 1931.496 2358.500 C 1913.740 2313.561, 1913.627 2313.131, 1916.579 2301.644 C 1918.327 2294.845, 1932.187 2256.321, 1937.679 2243 C 1950.484 2211.939, 1968.592 2190.592, 2001.500 2167.763 C 2011.688 2160.695, 2015.944 2158.946, 2024 2158.518 C 2060.853 2156.561, 2061.381 2156.570, 2067.298 2159.279 C 2075.823 2163.182, 2083.812 2169.060, 2091.572 2177.138 C 2102.536 2188.552, 2110.482 2201.261, 2127.740 2234.987 C 2133.514 2246.269, 2141.622 2262.025, 2145.758 2270 C 2166.182 2309.374, 2220.478 2407.736, 2301.698 2552.500 C 2406.975 2740.141, 2447.260 2813.801, 2477.801 2874.500 C 2497.319 2913.290, 2508.913 2931.982, 2525.375 2951.197 C 2533.795 2961.026, 2561.331 2986.556, 2566.263 2989.107 C 2570.906 2991.509, 2586.423 2993.122, 2593.719 2991.961 C 2610.217 2989.336, 2669.722 2969.988, 2705 2955.778 C 2733.777 2944.187, 2759.943 2928.513, 2765.458 2919.564 C 2768.500 2914.628, 2768.500 2914.628, 2768.369 2895.564 C 2768.223 2874.168, 2766.672 2862.786, 2762.006 2848.857 C 2755.594 2829.721, 2732.308 2787.190, 2665.996 2673.500 C 2587.179 2538.371, 2537.881 2449.535, 2473.986 2327.500 C 2418.411 2221.354, 2388.837 2167.047, 2341.370 2083.978 C 2334.291 2071.591, 2325.186 2054.850, 2321.137 2046.776 C 2314.448 2033.442, 2313.761 2031.514, 2313.637 2025.746 C 2313.518 2020.256, 2314.014 2018.356, 2317.301 2011.707 C 2322.609 2000.965, 2340.040 1983.352, 2355.500 1973.107 C 2375.982 1959.534, 2400.737 1948.844, 2429.285 1941.242 C 2438.496 1938.789, 2441.171 1938.522, 2456.500 1938.522 C 2472.713 1938.521, 2474.217 1938.694, 2489 1942.265 C 2517.852 1949.233, 2533.909 1959.486, 2547.810 1979.817 C 2558.112 1994.885, 2576.718 2026.720, 2608.699 2084 C 2672.172 2197.687, 2714.649 2275.180, 2737.616 2319.196 C 2772.735 2386.501, 2790.323 2418.319, 2796.896 2426.437 C 2800.422 2430.792, 2809.851 2446.534, 2821.493 2467.500 C 2901.557 2611.692, 2961.819 2716.102, 2970.634 2725.904 C 2976.926 2732.899, 2998.791 2745.598, 3006.322 2746.631 C 3011.973 2747.405, 3009.976 2748.003, 3090.500 2721.435 C 3159.348 2698.720, 3169.921 2694.772, 3183.790 2686.600 C 3192.911 2681.227, 3210.048 2664.484, 3212.623 2658.432 C 3214.978 2652.898, 3214.902 2622.951, 3212.505 2611.500 C 3207.713 2588.615, 3196.343 2566.614, 3120.506 2433.500 C 3101.706 2400.500, 3081.226 2364.275, 3074.996 2353 C 3068.766 2341.725, 3061.875 2329.575, 3059.682 2326 C 3057.490 2322.425, 3042.657 2296.550, 3026.720 2268.500 C 2874.603 2000.761, 2845.119 1952.291, 2795.784 1888.845 C 2766.256 1850.871, 2746.743 1830.327, 2719.292 1808.312 C 2682.725 1778.986, 2651.609 1758.711, 2617.500 1741.984 C 2582.047 1724.598, 2560.589 1719.051, 2492 1709.546 C 2438.202 1702.091, 2424.449 1700.822, 2410.500 1702.029 M 3288.500 3125.354 C 3282.582 3127.307, 3269.713 3134.349, 3185.500 3181.716 C 3167.900 3191.615, 3134.150 3210.414, 3110.500 3223.491 C 3086.850 3236.568, 3033.300 3266.273, 2991.500 3289.501 C 2949.700 3312.729, 2874.550 3354.359, 2824.500 3382.012 C 2684.196 3459.531, 2620.404 3495.231, 2560.500 3529.754 C 2543.545 3539.526, 2539.412 3542.388, 2533.357 3548.551 C 2520.636 3561.498, 2516.240 3574.714, 2520.986 3585.745 C 2522.195 3588.557, 2523.986 3591.582, 2524.965 3592.468 C 2529.692 3596.747, 2658.643 3661.370, 2771.500 3716.020 C 2934.995 3795.190, 3143.987 3894.353, 3244.854 3940.619 C 3273.484 3953.751, 3276.698 3954.999, 3281.854 3954.990 C 3292.936 3954.971, 3302.470 3947.869, 3307.242 3936.079 C 3309.500 3930.500, 3309.500 3930.500, 3309.520 3821 C 3309.535 3740.190, 3309.876 3707.832, 3310.820 3697.500 C 3311.772 3687.078, 3312.022 3661.268, 3311.799 3596.500 C 3311.565 3528.536, 3311.774 3508.884, 3312.750 3506.685 C 3313.704 3504.535, 3314.008 3489.401, 3314.035 3442.685 C 3314.054 3409.033, 3314.473 3361.700, 3314.965 3337.500 C 3318.781 3149.992, 3318.763 3137.881, 3314.646 3131.835 C 3310.771 3126.144, 3307.634 3124.559, 3299.699 3124.284 C 3295.705 3124.145, 3290.719 3124.621, 3288.500 3125.354" stroke="none" fill="#fcd768" fill-rule="evenodd"/></svg>